<svg width="177" height="47" viewBox="0 0 177 47" fill="none" xmlns="http://www.w3.org/2000/svg">
<path d="M69.1875 9.4674C69.2047 9.93501 69.1252 10.4012 68.954 10.8371C68.7827 11.273 68.5234 11.6695 68.192 12.002C67.4181 12.7075 66.4334 13.1427 65.3877 13.2415V13.3251C66.5053 13.4142 67.5657 13.853 68.4164 14.5784C68.7592 14.9075 69.0287 15.3044 69.2074 15.7434C69.3862 16.1824 69.4702 16.6537 69.454 17.127C69.4849 17.7983 69.3474 18.4666 69.0537 19.0719C68.7599 19.6773 68.3193 20.2006 67.7714 20.5947C66.3788 21.5066 64.7245 21.9418 63.0601 21.8342C61.4917 21.8934 59.9298 21.6031 58.489 20.9847V19.2717C59.9368 19.9349 61.508 20.2906 63.1021 20.3162C64.2515 20.3946 65.396 20.1068 66.3692 19.4945C66.7356 19.2255 67.0306 18.8719 67.2285 18.4642C67.4264 18.0566 67.5213 17.6071 67.5049 17.1549C67.523 16.7106 67.4189 16.2698 67.204 15.8797C66.9892 15.4897 66.6715 15.165 66.2851 14.9405C65.146 14.3814 63.8797 14.127 62.6114 14.2024H60.2277V12.6427H62.5132C63.7248 12.7119 64.9311 12.4365 65.9906 11.8488C66.3731 11.6166 66.6872 11.2883 66.9014 10.8972C67.1155 10.506 67.2221 10.0657 67.2105 9.62059C67.222 9.26235 67.148 8.90649 66.9945 8.58213C66.8409 8.25778 66.6122 7.97414 66.3271 7.75443C65.6337 7.26451 64.793 7.02383 63.9434 7.07203C63.2102 7.06113 62.479 7.15017 61.7701 7.33663C60.9755 7.58813 60.2203 7.94909 59.5266 8.40898L58.6152 7.16951C59.3651 6.62177 60.2047 6.20714 61.097 5.94398C62.006 5.66827 62.951 5.52748 63.9014 5.52618C65.2715 5.44356 66.6297 5.82128 67.7573 6.59853C68.212 6.92575 68.5798 7.35787 68.8289 7.85764C69.0781 8.35742 69.2012 8.90987 69.1875 9.4674Z" fill="#
005398"/>
<path d="M85.5227 25.7615H83.7559V21.5835H72.6508V25.7615H70.884V19.9541H72.1179C73.3554 17.8008 74.3208 15.5041 74.9924 13.1162C75.7395 10.7337 76.1869 8.26849 76.3244 5.77686H83.5035V19.9819H85.5227V25.7615ZM81.6527 19.9541V7.42019H78.007C77.7959 9.56838 77.354 11.688 76.689 13.7428C76.0551 15.9098 75.1754 17.9982 74.067 19.968L81.6527 19.9541Z" fill="#005398"/>
<path d="M102.082 13.6593C102.219 15.8431 101.528 17.9988 100.147 19.7034C98.6883 21.0901 96.747 21.864 94.7278 21.864C92.7085 21.864 90.7672 21.0901 89.3084 19.7034C87.9273 17.9994 87.2416 15.842 87.3874 13.6593C87.246 11.4856 87.9316 9.33845 89.3084 7.64301C90.0105 6.91614 90.863 6.34922 91.8071 5.98135C92.7512 5.61349 93.7644 5.45344 94.7768 5.51225C95.7779 5.45885 96.7784 5.62593 97.7068 6.00152C98.6352 6.3771 99.4686 6.95191 100.147 7.68479C101.514 9.36993 102.204 11.4986 102.082 13.6593ZM89.3505 13.6593C89.2304 15.4055 89.7261 17.1387 90.7526 18.5614C91.2482 19.1248 91.8677 19.5673 92.5631 19.8547C93.2585 20.1421 94.0112 20.2666 94.7628 20.2187C95.5151 20.272 96.2694 20.15 96.9657 19.8622C97.662 19.5745 98.2809 19.129 98.773 18.5614C99.7953 17.1367 100.291 15.405 100.175 13.6593C100.28 11.932 99.7849 10.2214 98.773 8.81284C98.281 8.24974 97.6637 7.8081 96.9702 7.52288C96.2766 7.23766 95.5257 7.11668 94.7768 7.16951C94.0208 7.11934 93.2633 7.24273 92.563 7.53012C91.8628 7.81752 91.2385 8.26119 90.7386 8.82677C89.7264 10.2293 89.2358 11.9374 89.3505 13.6593Z" fill="#005398"/>
<path d="M115.781 10.3726C115.833 11.0856 115.709 11.8003 115.421 12.4552C115.132 13.1102 114.688 13.6859 114.127 14.1328C112.742 15.0899 111.071 15.5514 109.387 15.4419H107.509V21.681H105.644V5.77686H109.85C113.776 5.77686 115.781 7.29485 115.781 10.3726ZM107.509 13.7985H109.177C110.422 13.897 111.668 13.6204 112.753 13.0047C113.132 12.7048 113.432 12.3168 113.625 11.8748C113.818 11.4328 113.899 10.9504 113.86 10.4701C113.89 10.0239 113.812 9.57705 113.631 9.16738C113.451 8.75772 113.173 8.39727 112.823 8.11652C111.846 7.52929 110.708 7.26139 109.57 7.35056H107.509V13.7985Z" fill="#005398"/>
<path d="M133 13.6593C133.138 15.8456 132.442 18.0035 131.051 19.7034C130.37 20.4374 129.535 21.0128 128.604 21.3884C127.673 21.7639 126.67 21.9305 125.667 21.8759C124.653 21.935 123.638 21.7709 122.695 21.3954C121.752 21.0198 120.904 20.4421 120.212 19.7034C118.837 17.9962 118.152 15.8412 118.291 13.6593C118.157 11.4864 118.842 9.34169 120.212 7.64301C120.914 6.91614 121.767 6.34922 122.711 5.98135C123.655 5.61349 124.668 5.45344 125.681 5.51225C126.684 5.45774 127.687 5.62425 128.618 5.99984C129.549 6.37543 130.384 6.95082 131.065 7.68479C132.432 9.36993 133.121 11.4986 133 13.6593ZM120.268 13.6593C120.148 15.4055 120.644 17.1387 121.671 18.5614C122.169 19.1251 122.791 19.5676 123.489 19.8549C124.186 20.1422 124.941 20.2667 125.695 20.2187C126.447 20.2709 127.201 20.1484 127.897 19.8607C128.593 19.573 129.212 19.1282 129.705 18.5614C130.721 17.1337 131.216 15.4043 131.107 13.6593C131.212 11.932 130.717 10.2214 129.705 8.81284C129.211 8.24406 128.59 7.79885 127.891 7.51333C127.191 7.22781 126.434 7.11001 125.681 7.16951C124.925 7.12146 124.168 7.24582 123.468 7.53307C122.768 7.82032 122.144 8.26285 121.643 8.82677C120.635 10.2312 120.15 11.939 120.268 13.6593Z" fill="#005398"/>
<path d="M136.561 5.77686H141.076C142.668 5.66008 144.261 5.98812 145.675 6.72387C146.148 7.05838 146.526 7.50861 146.771 8.03082C147.017 8.55302 147.122 9.12946 147.078 9.70415C147.109 10.5527 146.831 11.384 146.292 12.0438C145.684 12.6947 144.866 13.1135 143.979 13.2276V13.339C146.405 13.7428 147.61 15.0102 147.61 17.1409C147.648 17.7632 147.541 18.3857 147.298 18.9604C147.055 19.5352 146.682 20.0467 146.208 20.4554C145.041 21.3152 143.607 21.7392 142.156 21.6531H136.547L136.561 5.77686ZM138.412 12.573H141.483C142.458 12.646 143.433 12.4329 144.287 11.9602C144.592 11.7143 144.831 11.3975 144.982 11.038C145.134 10.6784 145.194 10.2872 145.157 9.89912C145.185 9.51989 145.111 9.13999 144.94 8.79936C144.77 8.45872 144.511 8.16992 144.189 7.96333C143.24 7.50534 142.185 7.30362 141.132 7.37842H138.328L138.412 12.573ZM138.412 14.1328V20.0794H141.82C142.848 20.1505 143.872 19.8865 144.736 19.3274C145.072 19.0437 145.336 18.6853 145.507 18.2812C145.678 17.8771 145.75 17.4387 145.718 17.0017C145.748 16.5843 145.671 16.1663 145.494 15.7864C145.318 15.4065 145.047 15.0772 144.708 14.8291C143.786 14.302 142.727 14.0596 141.665 14.1328H138.412Z" fill="#005398"/>
<path d="M162.095 17.0017C162.129 17.6457 162.013 18.289 161.755 18.8809C161.497 19.4729 161.105 19.9975 160.609 20.4137C159.391 21.2914 157.904 21.7199 156.402 21.6253H151.074V5.77686H152.939V12.5312H156.108C157.679 12.4255 159.243 12.826 160.567 13.6732C161.076 14.0616 161.482 14.5681 161.748 15.1484C162.015 15.7287 162.134 16.365 162.095 17.0017ZM152.925 20.0237H156.192C158.842 20.0237 160.16 19.021 160.16 17.0017C160.192 16.5861 160.115 16.1695 159.939 15.7916C159.762 15.4137 159.49 15.0871 159.15 14.843C158.139 14.2965 156.99 14.05 155.841 14.1328H152.897L152.925 20.0237Z" fill="#005398"/>
<path d="M174.364 21.6253H165.46V5.77686H174.364V7.39234H167.353V12.5034H173.985V14.1328H167.353V19.968H174.364V21.6253Z" fill="#005398"/>
<path d="M46.318 12.3919H34.8483V1H12.4697V12.3919H1V34.6187H12.4697V46.0106H34.8483V34.6187H46.318V12.3919Z" stroke="#00AA8A" stroke-width="1.13" stroke-miterlimit="10"/>
<path d="M65.9764 41.9859H64.5743V30.9839H58.1944V41.9859H56.7922V29.6887H66.0045L65.9764 41.9859Z" fill="#005398"/>
<path d="M76.2541 41.9859H69.3695V29.6887H76.2541V30.956H70.8137V34.9112H75.9176V36.1646H70.8137V40.6768H76.2541V41.9859Z" fill="#005398"/>
<path d="M82.8024 41.9858H81.4003V30.9839H77.4462V29.7166H86.7145V30.9839H82.8024V41.9858Z" fill="#005398"/>
<path d="M95.4639 41.9859H88.5372V29.6887H95.4359V30.956H90.0095V34.9112H95.1274V36.1646H90.0095V40.6768H95.4639V41.9859Z" fill="#005398"/>
<path d="M106.022 33.2678C106.054 33.8102 105.955 34.3523 105.733 34.8489C105.511 35.3454 105.173 35.7822 104.746 36.1228C103.674 36.855 102.385 37.2081 101.087 37.1255H99.6846V41.9859H98.2825V29.6887H101.479C104.48 29.6887 106.022 30.8446 106.022 33.2678ZM99.6286 35.9H100.919C101.894 35.9859 102.873 35.772 103.723 35.2872C104.015 35.0543 104.245 34.753 104.392 34.4104C104.539 34.0678 104.598 33.6944 104.564 33.3236C104.588 32.9801 104.528 32.636 104.389 32.3207C104.25 32.0054 104.036 31.7283 103.765 31.5131C103.016 31.06 102.144 30.8506 101.269 30.9143H99.6286V35.9Z" fill="#005398"/>
<path d="M116.581 38.3789C116.624 38.8828 116.548 39.3898 116.358 39.8591C116.168 40.3283 115.87 40.7468 115.487 41.0806C114.536 41.7364 113.39 42.0552 112.234 41.9859H108.616V29.6887H115.894V30.956H110.047V34.9251H111.968C112.866 34.8958 113.763 35.023 114.618 35.3011C115.23 35.494 115.762 35.8804 116.132 36.4013C116.478 37.0008 116.635 37.6899 116.581 38.3789ZM110.005 40.7186H112.024C112.842 40.7843 113.661 40.5944 114.365 40.1754C114.639 39.9655 114.857 39.6917 114.999 39.3783C115.14 39.065 115.202 38.7217 115.179 38.3789C115.208 38.0566 115.155 37.7322 115.025 37.4354C114.895 37.1385 114.692 36.8788 114.435 36.6799C113.634 36.2775 112.736 36.104 111.841 36.1785H110.047L110.005 40.7186Z" fill="#005398"/>
<path d="M120.002 42.1251C119.44 42.1355 118.881 42.0507 118.347 41.8745V40.4818C118.847 40.7166 119.393 40.8402 119.946 40.8439C120.477 40.8738 121.001 40.7214 121.432 40.4122C121.926 39.9777 122.311 39.4338 122.554 38.8245L117.745 29.6887H119.385L123.031 36.652C123.168 36.9085 123.276 37.1794 123.353 37.4597C123.449 37.1569 123.562 36.8594 123.69 36.5684L126.718 29.6748H128.247L124.293 38.4485C123.955 39.2551 123.527 40.0213 123.017 40.7325C122.674 41.1751 122.232 41.5327 121.727 41.777C121.184 42.0154 120.595 42.1342 120.002 42.1251Z" fill="#005398"/>
<path d="M137.795 33.2678C137.827 33.8102 137.728 34.3523 137.506 34.8489C137.284 35.3454 136.946 35.7822 136.519 36.1228C135.447 36.855 134.158 37.2081 132.86 37.1255H131.458V41.9859H130.055V29.6887H133.252C136.211 29.6887 137.795 30.8446 137.795 33.2678ZM131.402 35.9H132.691C133.668 35.9905 134.648 35.7763 135.496 35.2872C135.793 35.0574 136.027 34.7572 136.176 34.414C136.326 34.0708 136.386 33.6958 136.351 33.3236C136.375 32.9801 136.315 32.636 136.176 32.3207C136.037 32.0054 135.822 31.7283 135.552 31.5131C134.803 31.06 133.931 30.8506 133.056 30.9143H131.402V35.9Z" fill="#005398"/>
<path d="M143.741 35.6493L138.889 29.6887H140.488L145.297 35.6354V29.6887H146.699V35.6354L151.509 29.6887H153.121L148.256 35.6354L153.261 41.9859H151.635L146.713 35.7607V41.9859H145.311V35.7328L140.418 41.9859H138.735L143.741 35.6493Z" fill="#005398"/>
<path d="M164.254 40.6628H165.656V45.1611H164.254V41.9859H155V29.6887H156.402V40.6628H162.852V29.6887H164.254V40.6628Z" fill="#005398"/>
<path d="M175.472 41.9858L173.929 38.0863H169.022L167.507 41.9858H166.105L170.985 29.6608H172.205L177 41.9858H175.472ZM173.481 36.8051L172.078 33.0031C171.896 32.5157 171.7 31.9308 171.503 31.2205C171.377 31.7637 171.195 32.3486 170.971 33.0031L169.568 36.8051H173.481Z" fill="#005398"/>
<path d="M43.2051 27.0148C42.1724 26.5442 41.0461 26.311 39.91 26.3324C39.3718 26.5188 38.8727 26.802 38.4378 27.168C38.3674 27.2369 38.2829 27.29 38.1901 27.3235C38.0972 27.3571 37.9982 27.3704 37.8997 27.3624C37.8012 27.3545 37.7056 27.3256 37.6194 27.2776C37.5332 27.2296 37.4584 27.1637 37.4002 27.0845L36.4327 25.8311C36.3934 25.7545 36.3314 25.6918 36.2549 25.6515C36.1785 25.6112 36.0914 25.5953 36.0056 25.606C35.9197 25.6167 35.8393 25.6533 35.7752 25.7111C35.7111 25.7688 35.6665 25.8447 35.6474 25.9286C35.6474 25.9286 34.7921 27.8086 33.8807 27.6972C32.9693 27.5858 32.4785 27.6972 32.2963 27.0009C32.114 26.3046 31.6933 22.2519 31.6933 22.2519C31.6476 21.8192 31.4605 21.4132 31.1605 21.096C30.8662 20.7726 30.6886 20.361 30.6557 19.9262L30.193 12.7401C30.193 12.3223 30.1089 12.3223 30.0808 12.7401L29.52 19.7869C29.447 20.2643 29.203 20.6994 28.8329 21.0125C28.6472 21.1584 28.4949 21.3419 28.3861 21.5508C28.2773 21.7597 28.2145 21.9892 28.2019 22.2241V25.093C28.1782 25.5806 28.044 26.0566 27.8093 26.4856C27.6823 26.6772 27.5096 26.8346 27.3066 26.944C27.1036 27.0533 26.8765 27.1111 26.6455 27.1123L24.9068 26.987C24.6971 26.9699 24.5011 26.8767 24.3562 26.7251C24.2113 26.5735 24.1278 26.3742 24.1216 26.1653V24.8841C24.0974 24.3967 23.8927 23.9354 23.5467 23.5889L23.4486 23.5053C23.1229 23.186 22.8779 22.7947 22.7335 22.3634C22.7335 22.0152 22.5372 22.0152 22.453 22.3634C22.3269 22.7698 22.1004 23.1385 21.794 23.4357C21.4795 23.7685 21.2997 24.2049 21.2892 24.6612V25.3715C21.2955 25.4626 21.2784 25.5539 21.2397 25.6368C21.201 25.7196 21.1419 25.7915 21.0678 25.8456C20.9937 25.8998 20.907 25.9345 20.8158 25.9466C20.7247 25.9586 20.6319 25.9476 20.5461 25.9146C20.0906 25.7867 19.6142 25.7489 19.1439 25.8032C18.4569 25.9146 17.9942 26.9173 17.9942 26.9173C17.8119 27.3073 17.4613 27.3908 17.2089 27.1123C17.0554 26.966 16.8632 26.866 16.6546 26.8241C16.4461 26.7821 16.2298 26.8 16.0311 26.8756C15.2752 27.1929 14.4913 27.4399 13.6895 27.6137C13.2268 27.6137 12.1892 26.1096 12.1892 26.1096C11.9181 25.6768 11.7104 25.2079 11.5722 24.7169L11.2497 23.3243C11.1516 22.9065 10.9833 22.9065 10.8852 23.3243L10.5767 24.5359C10.4211 25.001 10.1279 25.4087 9.73539 25.7057C8.963 26.2347 8.11116 26.639 7.21149 26.9034C6.18876 26.962 5.16348 26.962 4.14075 26.9034" stroke="#005398" stroke-width="1.13" stroke-miterlimit="10"/>
</svg>
